<?xml version="1.0" encoding="UTF-8" standalone="no"?>
<svg
   xmlns:dc="http://purl.org/dc/elements/1.1/"
   xmlns:cc="http://creativecommons.org/ns#"
   xmlns:rdf="http://www.w3.org/1999/02/22-rdf-syntax-ns#"
   xmlns:svg="http://www.w3.org/2000/svg"
   xmlns="http://www.w3.org/2000/svg"
   xmlns:sodipodi="http://sodipodi.sourceforge.net/DTD/sodipodi-0.dtd"
   xmlns:inkscape="http://www.inkscape.org/namespaces/inkscape"
   id="Layer_1"
   viewBox="0 0 1200 600"
   version="1.1"
   sodipodi:docname="logo-dark.svg"
   width="1200"
   height="600"
   inkscape:version="1.0.2-2 (e86c870879, 2021-01-15)">
  <metadata
     id="metadata46">
    <rdf:RDF>
      <cc:Work
         rdf:about="">
        <dc:format>image/svg+xml</dc:format>
        <dc:type
           rdf:resource="http://purl.org/dc/dcmitype/StillImage" />
        <dc:title></dc:title>
      </cc:Work>
    </rdf:RDF>
  </metadata>
  <sodipodi:namedview
     pagecolor="#ffffff"
     bordercolor="#666666"
     borderopacity="1"
     objecttolerance="10"
     gridtolerance="10"
     guidetolerance="10"
     inkscape:pageopacity="0"
     inkscape:pageshadow="2"
     inkscape:window-width="1920"
     inkscape:window-height="1017"
     id="namedview44"
     showgrid="false"
     inkscape:snap-bbox="true"
     inkscape:bbox-paths="true"
     inkscape:bbox-nodes="true"
     inkscape:snap-bbox-edge-midpoints="true"
     inkscape:snap-bbox-midpoints="true"
     inkscape:object-paths="true"
     inkscape:snap-intersection-paths="true"
     inkscape:snap-smooth-nodes="true"
     inkscape:snap-midpoints="true"
     inkscape:snap-object-midpoints="true"
     inkscape:snap-center="true"
     inkscape:snap-text-baseline="true"
     inkscape:snap-page="true"
     fit-margin-top="0"
     fit-margin-left="0"
     fit-margin-right="0"
     fit-margin-bottom="0"
     inkscape:zoom="0.57250271"
     inkscape:cx="461.99298"
     inkscape:cy="146.08799"
     inkscape:window-x="1912"
     inkscape:window-y="-8"
     inkscape:window-maximized="1"
     inkscape:current-layer="Layer_1" />
  <defs
     id="defs11">
    <style
       id="style2">.cls-1,.cls-2{fill:#fff;}.cls-2,.cls-3{fill-rule:evenodd;}.cls-3{fill:url(#GradientFill_1);}.cls-4{fill:#31455c;stroke:#010101;stroke-miterlimit:22.93;stroke-width:.57px;}</style>
    <linearGradient
       id="GradientFill_1"
       x1="297.88"
       y1="758.08002"
       x2="573.96997"
       y2="758.08002"
       gradientUnits="userSpaceOnUse">
      <stop
         offset="0"
         stop-color="#4cc1f0"
         id="stop4" />
      <stop
         offset=".6"
         stop-color="#46b7a6"
         id="stop6" />
      <stop
         offset="1"
         stop-color="#78c4b2"
         id="stop8" />
    </linearGradient>
  </defs>
  <g
     id="g41"
     transform="translate(-158.06997,-454.49459)">
    <g
       id="g33">
      <path
         class="cls-1"
         d="m 674.53,725.02 v 71.6 h -16.57 v -29.35 h -32.53 v 29.35 h -16.57 v -71.6 h 16.57 v 28.23 h 32.53 v -28.23 z"
         id="path15" />
      <path
         class="cls-1"
         d="m 759.93,725.02 -30.99,71.6 h -16.36 l -30.89,-71.6 h 17.9 l 21.79,51.14 22.09,-51.14 h 16.47 z"
         id="path17" />
      <path
         class="cls-1"
         d="m 765.86,725.02 h 32.53 c 7.77,0 14.64,1.48 20.61,4.45 5.97,2.97 10.6,7.14 13.91,12.53 3.31,5.39 4.96,11.66 4.96,18.82 0,7.16 -1.65,13.43 -4.96,18.82 -3.31,5.39 -7.94,9.56 -13.91,12.53 -5.97,2.97 -12.84,4.45 -20.61,4.45 h -32.53 z m 31.71,57.99 c 7.16,0 12.87,-1.99 17.13,-5.98 4.26,-3.99 6.39,-9.39 6.39,-16.21 0,-6.82 -2.13,-12.22 -6.39,-16.21 -4.26,-3.99 -9.97,-5.98 -17.13,-5.98 h -15.14 v 44.39 h 15.14 z"
         id="path19" />
      <path
         class="cls-1"
         d="m 864.82,793.08 c -5.9,-3.17 -10.54,-7.57 -13.91,-13.19 -3.38,-5.63 -5.06,-11.98 -5.06,-19.08 0,-7.1 1.69,-13.45 5.06,-19.08 3.37,-5.63 8.01,-10.02 13.91,-13.19 5.9,-3.17 12.53,-4.76 19.89,-4.76 6.2,0 11.81,1.09 16.83,3.27 5.01,2.18 9.22,5.32 12.63,9.41 l -10.64,9.82 c -4.84,-5.59 -10.84,-8.39 -18,-8.39 -4.43,0 -8.39,0.97 -11.86,2.92 -3.47,1.95 -6.19,4.65 -8.13,8.13 -1.94,3.48 -2.92,7.43 -2.92,11.86 0,4.43 0.97,8.39 2.92,11.86 1.95,3.47 4.65,6.19 8.13,8.13 3.48,1.94 7.43,2.92 11.86,2.92 7.16,0 13.16,-2.83 18,-8.49 l 10.64,9.82 c -3.41,4.16 -7.64,7.33 -12.68,9.51 -5.05,2.18 -10.67,3.27 -16.88,3.27 -7.3,0 -13.89,-1.59 -19.79,-4.76 z"
         id="path21" />
      <path
         class="cls-1"
         d="m 921.53,761.43 h 28.95 v 12.79 h -28.95 z"
         id="path23" />
      <path
         class="cls-1"
         d="m 1063.9,725.02 -24.24,71.6 h -5.52 l -22.2,-64.23 -22.3,64.23 h -5.52 l -24.34,-71.6 h 5.52 l 21.79,64.44 22.4,-64.44 h 5.01 l 22.3,64.54 21.99,-64.54 z"
         id="path25" />
      <path
         class="cls-1"
         d="m 1080.47,725.02 h 5.22 v 71.6 h -5.22 z"
         id="path27" />
      <path
         class="cls-1"
         d="m 1114.48,794.41 c -4.74,-1.81 -8.44,-4.14 -11.1,-7.01 l 2.35,-3.89 c 2.52,2.66 5.92,4.82 10.18,6.5 4.26,1.67 8.74,2.51 13.45,2.51 6.82,0 11.97,-1.29 15.44,-3.89 3.48,-2.59 5.22,-5.97 5.22,-10.13 0,-3.2 -0.92,-5.76 -2.76,-7.67 -1.84,-1.91 -4.13,-3.38 -6.85,-4.4 -2.73,-1.02 -6.41,-2.08 -11.05,-3.17 -5.25,-1.29 -9.46,-2.56 -12.63,-3.78 -3.17,-1.23 -5.86,-3.12 -8.08,-5.68 -2.22,-2.56 -3.32,-5.98 -3.32,-10.28 0,-3.48 0.92,-6.66 2.76,-9.56 1.84,-2.9 4.65,-5.2 8.44,-6.9 3.78,-1.7 8.5,-2.56 14.17,-2.56 3.95,0 7.84,0.58 11.66,1.74 3.82,1.16 7.12,2.73 9.92,4.71 l -1.94,4.19 c -2.86,-1.98 -6.02,-3.48 -9.46,-4.5 -3.44,-1.02 -6.84,-1.53 -10.18,-1.53 -6.62,0 -11.63,1.33 -15.04,3.99 -3.41,2.66 -5.11,6.1 -5.11,10.33 0,3.21 0.92,5.76 2.76,7.67 1.84,1.91 4.12,3.38 6.85,4.4 2.73,1.02 6.44,2.11 11.15,3.27 5.25,1.3 9.44,2.56 12.58,3.78 3.13,1.23 5.81,3.09 8.03,5.57 2.21,2.49 3.32,5.85 3.32,10.08 0,3.48 -0.94,6.65 -2.81,9.51 -1.88,2.86 -4.76,5.15 -8.64,6.85 -3.89,1.71 -8.66,2.56 -14.32,2.56 -5.25,0 -10.25,-0.9 -14.98,-2.71 z"
         id="path29" />
      <path
         class="cls-1"
         d="m 1222.33,791.91 v 4.71 h -49.4 v -71.6 h 47.87 v 4.7 h -42.65 v 28.23 h 38.15 v 4.6 h -38.15 v 29.35 h 44.19 z"
         id="path31" />
    </g>
    <g
       id="g39">
      <path
         class="cls-3"
         d="m 522.94,715.22 v 0 c -1.9,0.9 -3.58,2.34 -4.76,4.26 -0.23,0.38 -0.43,0.76 -0.61,1.15 l -62.83,-22.9 c -0.05,-1.71 -0.5,-3.4 -1.3,-4.92 l 23.99,-18.71 c 0.27,0.2 0.54,0.39 0.83,0.57 4.62,2.83 10.47,1.9 14.02,-1.93 14.51,11.18 24.9,26.07 30.66,42.49 v 0 z m -64.52,-6.24 h -19.18 l -19.23,36.52 12.39,0.12 c -0.11,2.13 -16.86,32.51 -18.97,37.71 l 41.89,-45.66 c 1.09,-1.26 1.9,-1.63 2.74,-3.04 l -16.36,-0.24 16.73,-25.42 v 0 z m -26.72,166.6 c -8.52,-0.47 -17.09,-1.76 -25.64,-3.91 -37.84,-9.54 -69.02,-35.79 -85.06,-66.54 l -2.81,-5.51 c -4.79,-10.88 -7.94,-18.09 -10.4,-30.98 -3.79,-19.88 -3.66,-40.51 1.61,-60.53 2.43,-9.18 5.39,-16.84 9.17,-24.73 2.02,-4.2 3.9,-7.45 6.01,-11 l 2.46,-3.72 c 0.3,-0.41 0.58,-1.06 0.84,-1.46 4.78,-7.4 13.45,-17.35 19.41,-22.79 1.69,-1.55 2.79,-2.51 4.4,-3.99 l 1.23,-1.06 c 0,0 0.09,-0.08 0.12,-0.11 l 8.01,-6.24 c 1.5,-1.12 3.32,-2.45 4.86,-3.32 -1.41,0.33 -6.9,4.36 -8.17,4.97 -0.29,0.14 -0.6,0.27 -0.75,0.37 l -1.83,1.55 c -8.52,6.3 -11.68,9.12 -19.19,16.67 -3.8,3.82 -9.02,10.29 -12.17,14.71 -8.39,11.79 -13.68,21.95 -18.63,36.12 -1.49,4.26 -3.04,9.83 -4.01,14.27 -6.73,30.79 -3.07,62.5 10.57,90.39 5.41,11.07 10.02,17.85 17.58,27.34 2.7,3.38 5.36,6.26 8.49,9.45 9.53,9.73 18.98,16.59 30.77,23.39 1.61,0.93 5.83,3.19 7.94,4.02 0.29,0.14 0.58,0.26 0.85,0.39 l 2.06,0.91 c 1.19,0.6 2.3,1.19 2.69,1.34 1.07,0.4 0.71,0.07 1.68,0.63 0.94,0.55 2.29,0.93 3.32,1.32 2.27,0.86 4.4,1.61 6.87,2.36 10.77,3.31 21.2,5.35 31.57,6.16 h 0.22 c 0.3,0.04 0.6,0.06 0.9,0.08 l 0.34,0.02 0.8,0.05 0.45,0.02 0.68,0.04 0.55,0.03 0.63,0.03 0.58,0.02 0.61,0.03 0.61,0.02 h 0.58 c 0,0 0.64,0.03 0.64,0.03 h 0.55 c 0,0 0.69,0.02 0.69,0.02 h 0.44 c 0,0 0.8,0 0.8,0 h 0.35 c 0.3,0 0.6,0 0.9,0 h 0.21 c 10.41,-0.12 20.95,-1.47 31.92,-4.05 2.51,-0.59 4.7,-1.19 7.02,-1.9 1.05,-0.32 2.43,-0.62 3.4,-1.1 1,-0.5 0.62,-0.19 1.72,-0.52 0.4,-0.12 1.55,-0.64 2.77,-1.16 l 2.12,-0.77 c 0.29,-0.1 0.58,-0.21 0.87,-0.33 2.16,-0.69 6.53,-2.67 8.2,-3.49 12.22,-6.01 22.1,-12.23 32.26,-21.3 3.34,-2.98 6.19,-5.67 9.1,-8.86 8.18,-8.97 13.22,-15.43 19.36,-26.12 15.47,-26.93 21.22,-58.32 16.55,-89.49 -0.68,-4.49 -1.85,-10.15 -3.05,-14.5 -4,-14.46 -8.6,-24.96 -16.19,-37.28 -2.85,-4.62 -7.63,-11.42 -11.17,-15.49 -6.99,-8.02 -9.96,-11.06 -18.04,-17.91 l -1.73,-1.67 c -0.14,-0.12 -0.44,-0.26 -0.72,-0.43 -1.22,-0.7 -6.44,-5.08 -7.82,-5.5 1.47,0.96 3.21,2.42 4.63,3.64 l 7.58,6.75 c 0,0 0.07,0.09 0.1,0.13 l 1.17,1.13 c 1.51,1.58 2.54,2.62 4.12,4.27 5.59,5.83 13.58,16.33 17.85,24.03 0.23,0.41 0.48,1.08 0.75,1.51 l 2.21,3.88 c 1.87,3.68 3.53,7.04 5.26,11.37 3.25,8.12 5.7,15.95 7.51,25.28 3.93,20.32 2.69,40.92 -2.41,60.5 -3.31,12.7 -6.93,19.68 -12.43,30.22 l -3.17,5.31 c -18.04,29.62 -50.89,53.75 -89.29,60.75 -8.67,1.58 -17.3,2.3 -25.83,2.2 v 0 z m -51,-39.31 c 49.77,30.49 114.83,14.86 145.32,-34.91 30.49,-49.77 14.87,-114.84 -34.9,-145.33 -49.77,-30.5 -114.84,-14.87 -145.33,34.91 -14.86,24.25 -18.76,52.13 -13.1,77.88 -0.11,-2.17 0.41,-4.39 1.63,-6.38 1.23,-2.02 3,-3.5 5.01,-4.38 -2.2,-17.23 0.19,-35.11 7.58,-51.73 -3.67,-3.55 -4.52,-9.29 -1.74,-13.83 2.7,-4.4 7.96,-6.26 12.69,-4.86 11.24,-15.08 26.22,-26.08 42.86,-32.5 -0.06,-2.09 0.46,-4.22 1.63,-6.14 3.22,-5.25 10.09,-6.9 15.35,-3.68 1.77,1.08 3.11,2.58 4.02,4.29 18.09,-2.67 36.98,-0.28 54.44,7.68 3.56,-3.6 9.25,-4.42 13.75,-1.66 4.43,2.71 6.28,8 4.84,12.75 15.75,11.95 26.97,28.03 33.07,45.78 1.95,0.02 3.91,0.54 5.69,1.63 5.26,3.22 6.9,10.09 3.68,15.35 -1.16,1.9 -2.8,3.31 -4.66,4.21 1.97,17.89 -0.97,36.43 -9.36,53.45 3.66,3.55 4.51,9.29 1.73,13.82 -2.86,4.66 -8.59,6.48 -13.52,4.58 -11.78,14.53 -27.17,24.96 -44.06,30.73 0.03,2.04 -0.49,4.1 -1.63,5.97 -3.22,5.26 -10.09,6.9 -15.34,3.69 -2.01,-1.22 -3.48,-2.98 -4.36,-4.97 -17.51,1.86 -35.63,-0.97 -52.33,-9.01 -3.55,3.7 -9.32,4.57 -13.87,1.78 -4.64,-2.84 -6.46,-8.52 -4.62,-13.42 -14.29,-11.38 -24.65,-26.21 -30.64,-42.56 -2.21,0.14 -4.49,-0.37 -6.53,-1.62 -1.98,-1.22 -3.46,-2.96 -4.34,-4.94 6.66,25.5 22.8,48.57 47.04,63.42 z m 40.69,-175.6 c -0.24,0.39 -0.5,0.75 -0.78,1.11 l 18.57,26 c 3.21,-1.38 7.02,-1.24 10.23,0.73 0.28,0.17 0.54,0.35 0.79,0.53 l 24.01,-18.72 c -1.39,-2.66 -1.68,-5.83 -0.68,-8.76 -16.22,-7.26 -33.72,-9.49 -50.51,-7.12 0.08,2.12 -0.44,4.29 -1.63,6.24 v 0 z m -4.66,4.21 v 0 l 18.44,25.82 c -0.4,0.46 -0.77,0.95 -1.1,1.49 -1.67,2.73 -2.03,5.88 -1.25,8.73 -12.75,0.86 -24.04,6.99 -31.74,16.22 l 11.14,-51.15 c 1.56,-0.05 3.1,-0.43 4.5,-1.11 v 0 z m -52.52,39.28 v 0 c 2.84,-4.64 1.88,-10.53 -2,-14.07 10.5,-13.88 24.38,-24.08 39.77,-30.12 0.9,1.75 2.27,3.28 4.07,4.39 0.43,0.26 0.86,0.48 1.31,0.68 l -14.74,67.63 c -0.77,2.47 -1.34,5.03 -1.67,7.67 l -0.17,0.78 c -0.95,0.1 -1.88,0.33 -2.78,0.67 l -23.99,-37.32 c 0.06,-0.1 0.13,-0.19 0.2,-0.3 v 0 z m -13.01,4.76 v 0 c 3.08,1.02 6.43,0.63 9.16,-0.97 l 23.52,36.58 c -0.53,0.55 -1,1.17 -1.41,1.84 -1.24,2.01 -1.75,4.27 -1.63,6.46 l -27.67,9.33 c -0.87,-1.34 -2.04,-2.52 -3.5,-3.42 -1.7,-1.04 -3.58,-1.57 -5.45,-1.63 -1.98,-16.05 0.2,-32.69 6.98,-48.2 v 0 z m 38.05,106.39 v 0 l 3.83,-52.02 c 0.27,-0.03 0.54,-0.07 0.81,-0.11 6.16,15.18 20.3,26.26 37.21,28.05 l -37.33,27.01 c -0.67,-0.71 -1.44,-1.36 -2.31,-1.9 -0.71,-0.43 -1.45,-0.77 -2.21,-1.03 z M 349.31,778 v 0 c 1.6,-0.9 3.01,-2.21 4.05,-3.89 1.39,-2.27 1.87,-4.84 1.55,-7.28 l 27.32,-9.22 c 0.91,1.63 2.22,3.07 3.93,4.11 0.64,0.39 1.31,0.71 2,0.97 l -3.83,52.1 c -2.37,0.29 -4.62,1.32 -6.4,3.01 -13.29,-10.69 -22.97,-24.54 -28.61,-39.8 v 0 z m 97.37,54.24 v 0 c -1.06,1.72 -1.58,3.61 -1.63,5.5 -16.33,1.65 -33.22,-1 -48.81,-8.42 0.73,-2.24 0.72,-4.59 0.05,-6.77 l 43.12,-31.2 c 8.19,-0.62 15.77,-3.42 22.16,-7.81 l -4.48,43.41 c -4.05,-0.32 -8.13,1.58 -10.4,5.29 v 0 z m 60.6,-27.82 v 0 c -11.05,13.49 -25.38,23.21 -41.11,28.66 -0.9,-1.81 -2.3,-3.39 -4.14,-4.53 -0.04,-0.02 -0.08,-0.04 -0.12,-0.06 l 4.95,-47.94 c 1.5,-0.38 2.93,-1.09 4.18,-2.07 l 33.27,17.34 c -0.27,3.12 0.79,6.27 2.98,8.6 v 0 z m 11.67,-18.2 v 0 c -4.82,-1.62 -10.28,0.23 -13.05,4.74 -0.02,0.03 -0.03,0.05 -0.04,0.08 l -31.66,-16.5 c 0.89,-1.86 1.22,-3.86 1.04,-5.8 0.58,-0.99 1.11,-2.02 1.61,-3.06 l 44.79,-31.02 c 0.08,0.05 0.15,0.11 0.24,0.16 1.82,1.11 3.84,1.63 5.83,1.63 1.72,16.66 -1.04,33.89 -8.75,49.76 v 0 z m -0.81,-55.17 c -1,-1.67 -1.54,-3.58 -1.59,-5.52 l -62.8,-22.9 c -0.19,0.41 -0.39,0.82 -0.64,1.21 l -0.17,0.27 c 16.6,6.73 28.32,23.01 28.32,42.03 0,3.96 -0.51,7.79 -1.46,11.45 l 38.34,-26.55 v 0 z"
         id="path35"
         style="fill:url(#GradientFill_1)" />
      <path
         class="cls-2"
         d="m 458.35,708.96 h -19.18 l -19.23,36.52 12.39,0.12 c -0.11,2.13 -16.86,32.5 -18.97,37.71 l 41.89,-45.66 c 1.09,-1.26 1.9,-1.63 2.74,-3.04 l -16.36,-0.24 16.73,-25.42 z"
         id="path37" />
    </g>
  </g>
</svg>
